# xmcd
#
# Track frame offsets:
#	150
#	15720
#	36712
#	57357
#	74197
#	91590
#	106930
#	122905
#	136595
#	150415
#	171807
#	187912
#	209150
#	225025
#	238302
#	260957
#
# Disc length: 3551 seconds
#
# Revision: 0
# Processed by: cddbd v1.5PL3 Copyright (c) Steve Scherf et al.
# Submitted via: EasyCDDAExtractor 5.0.2.1
#
DISCID=e20ddd10
DTITLE=Various Artist - Marie-Élaine Thibert
DYEAR=2004
DGENRE=Pop
TTITLE0=Marie-Élaine Thibert - Dans Chacun De Mes Silences
TTITLE1=Encore Une Fois
TTITLE2=Le Ciel Est À Moi
TTITLE3=Une Force En Toi
TTITLE4=Aller Plus Haut
TTITLE5=Fille De Ville
TTITLE6=Je Te Le Jure
TTITLE7=La Quête
TTITLE8=Il Était Une Fois Des Gens Heureux
TTITLE9=La Paix
TTITLE10=Quand On A Que L'amour
TTITLE11=J'veux
TTITLE12=That's It, That's All
TTITLE13=L'amitié
TTITLE14=Le Tour De L'île
TTITLE15=Tout L' Temps
EXTD=
EXTT0=
EXTT1=
EXTT2=
EXTT3=
EXTT4=
EXTT5=
EXTT6=
EXTT7=
EXTT8=
EXTT9=
EXTT10=
EXTT11=
EXTT12=
EXTT13=
EXTT14=
EXTT15=
PLAYORDER=
